0
SECTION
2
HEADER
9
$INSUNITS
70
4
9
$ACADVER
1
AC1014
9
$HANDSEED
5
FFFF
0
ENDSEC
0
SECTION
2
TABLES
0
TABLE
2
VPORT
5
8
100
AcDbSymbolTable
0
ENDTAB
0
TABLE
2
LTYPE
5
5
100
AcDbSymbolTable
0
LTYPE
5
14
100
AcDbSymbolTableRecord
100
AcDbLinetypeTableRecord
2
BYBLOCK
70
0
0
LTYPE
5
15
100
AcDbSymbolTableRecord
100
AcDbLinetypeTableRecord
2
BYLAYER
70
0
0
ENDTAB
0
TABLE
2
LAYER
5
2
100
AcDbSymbolTable
70
2
0
LAYER
5
50
100
AcDbSymbolTableRecord
100
AcDbLayerTableRecord
2
0
70
0
6
CONTINUOUS
0
ENDTAB
0
TABLE
2
STYLE
5
3
100
AcDbSymbolTable
70
1
0
STYLE
5
11
100
AcDbSymbolTableRecord
100
AcDbTextStyleTableRecord
2
STANDARD
70
0
0
ENDTAB
0
TABLE
2
VIEW
5
6
100
AcDbSymbolTable
70
0
0
ENDTAB
0
TABLE
2
UCS
5
7
100
AcDbSymbolTable
70
0
0
ENDTAB
0
TABLE
2
APPID
5
9
100
AcDbSymbolTable
70
2
0
APPID
5
12
100
AcDbSymbolTableRecord
100
AcDbRegAppTableRecord
2
ACAD
70
0
0
ENDTAB
0
TABLE
2
DIMSTYLE
5
A
100
AcDbSymbolTable
70
1
0
ENDTAB
0
TABLE
2
BLOCK_RECORD
5
1
100
AcDbSymbolTable
70
1
0
BLOCK_RECORD
5
1F
100
AcDbSymbolTableRecord
100
AcDbBlockTableRecord
2
*MODEL_SPACE
0
BLOCK_RECORD
5
1B
100
AcDbSymbolTableRecord
100
AcDbBlockTableRecord
2
*PAPER_SPACE
0
ENDTAB
0
ENDSEC
0
SECTION
2
BLOCKS
0
BLOCK
5
20
100
AcDbEntity
100
AcDbBlockBegin
2
*MODEL_SPACE
0
ENDBLK
5
21
100
AcDbEntity
100
AcDbBlockEnd
0
BLOCK
5
1C
100
AcDbEntity
100
AcDbBlockBegin
2
*PAPER_SPACE
0
ENDBLK
5
1D
100
AcDbEntity
100
AcDbBlockEnd
0
ENDSEC
0
SECTION
2
ENTITIES
0
LWPOLYLINE
5
100
100
AcDbEntity
8
0
100
AcDbPolyline
90
52
70
1
43
0.0
10
60.000000000000711
20
-7.4505837055482971e-07
10
60.000000000000568
20
4.9999999999996891
10
50.000000000000568
20
4.999999999999396
10
50.000000000000711
20
-7.4505866365370821e-07
10
40.000000000000711
20
-8.8817841970012523e-13
10
40.000000000000568
20
4.9999999999991118
10
30.000000000000568
20
4.9999999999988276
10
30.000000000000711
20
-1.1723955140041653e-12
10
20.000000000000711
20
-7.4505951630499112e-07
10
20.000000000000568
20
4.9999999999985434
10
10.000000000000568
20
4.9999999999982592
10
10.000000000000711
20
-1.7408297026122455e-12
10
5
20
0
10
4.9999987334012985
20
10
10
0
20
10
10
0
20
20
10
4.9999987334012985
20
20
10
5
20
30
10
0
20
30
10
0
20
40
10
4.9999987334012985
20
40
10
5
20
50
10
10
20
50
10
10
20
45
10
20
20
45
10
20
20
50.00000074505806
10
30
20
50
10
30
20
45
10
40
20
45
10
40
20
50
10
50
20
50
10
50
20
45
10
60
20
45
10
60
20
50.00000074505806
10
70
20
50.00000074505806
10
70
20
45
10
80
20
45
10
80
20
50
10
85
20
50
10
85.000001266598701
20
40
10
90
20
40
10
90
20
30
10
85
20
30
10
85
20
20
10
90
20
20
10
90
20
10
10
85.000001266598701
20
10
10
85
20
0
10
80.000000000000711
20
2.5757174171303632e-13
10
80.000000000000568
20
5.0000000000002576
10
70.000000000000568
20
4.9999999999999734
10
70.000000000000711
20
-2.6645352591003757e-14
0
ENDSEC
0
SECTION
2
OBJECTS
0
DICTIONARY
5
C
100
AcDbDictionary
3
ACAD_GROUP
350
D
3
ACAD_MLINESTYLE
350
17
0
DICTIONARY
5
D
100
AcDbDictionary
0
DICTIONARY
5
1A
330
C
100
AcDbDictionary
0
DICTIONARY
5
17
100
AcDbDictionary
0
ENDSEC
0
EOF
